<?xml version="1.0" encoding="utf-8"?>
<!-- Generator: Adobe Illustrator 16.0.0, SVG Export Plug-In . SVG Version: 6.00 Build 0)  -->
<!DOCTYPE svg PUBLIC "-//W3C//DTD SVG 1.1//EN" "http://www.w3.org/Graphics/SVG/1.1/DTD/svg11.dtd">
<svg version="1.1" id="Layer_1" xmlns="http://www.w3.org/2000/svg" xmlns:xlink="http://www.w3.org/1999/xlink" x="0px" y="0px"
	 width="1667.389px" height="356.373px" viewBox="4206.642 893.62 1667.389 356.373"
	 enable-background="new 4206.642 893.62 1667.389 356.373" xml:space="preserve">
<g id="Livello_x0020_1">
	<polygon fill="#3777E3" points="4275.06,1249.179 4343.467,1130.66 4617.12,1130.66 4548.706,1249.179 	"/>
	<polygon fill="#FFCF63" points="4480.298,1130.66 4617.12,1130.66 4480.298,893.62 4343.467,893.62 	"/>
	<polygon fill="#11A861" points="4206.642,1130.66 4275.06,1249.179 4411.881,1012.14 4343.467,893.62 	"/>
</g>
<g>
	<path fill="#0075C9" d="M5057.353,998.797c-48.039,0-89.752,27.01-110.83,66.659c-21.078-39.651-62.791-66.656-110.826-66.656
		c-28.234,0-54.288,9.328-75.25,25.072V918.197h-0.012c-0.294-13.617-11.405-24.577-25.094-24.577
		c-13.69,0-24.801,10.96-25.091,24.577h-0.012v208.139h0.053c1.114,68.323,56.814,123.382,125.405,123.382
		c48.035,0,89.748-27.014,110.824-66.664c21.08,39.652,62.793,66.662,110.829,66.662c69.287,0,125.458-56.174,125.458-125.459
		C5182.808,1054.964,5126.636,998.797,5057.353,998.797z M4835.696,1199.509c-41.562,0-75.252-33.691-75.252-75.25
		c0-41.564,33.689-75.255,75.252-75.255c41.561,0,75.25,33.69,75.25,75.255C4910.946,1165.818,4877.257,1199.509,4835.696,1199.509z
		 M5057.353,1199.509c-41.563,0-75.252-33.691-75.252-75.253c0-41.564,33.689-75.252,75.252-75.252
		c41.559,0,75.252,33.688,75.252,75.252C5132.602,1165.818,5098.911,1199.509,5057.353,1199.509z"/>
	<path fill="#0075C9" d="M5351.572,1210.233l-64.251-85.883l64.251-85.886l-0.013-0.011c7.948-11.064,5.645-26.499-5.303-34.724
		c-10.945-8.217-26.41-6.131-34.822,4.583l-0.006-0.003l-55.453,74.127l-55.454-74.127l-0.009,0.015
		c-8.412-10.726-23.873-12.812-34.824-4.589c-10.947,8.225-13.25,23.659-5.298,34.721l-0.011,0.008l64.248,85.886l-64.248,85.883
		l0.011,0.006c-7.952,11.066-5.649,26.498,5.298,34.72c10.951,8.226,26.412,6.135,34.824-4.583l0.009,0.012l55.454-74.13
		l55.453,74.13l0.006-0.003c8.413,10.712,23.877,12.8,34.822,4.58c10.947-8.222,13.251-23.656,5.303-34.721L5351.572,1210.233z"/>
</g>
<g id="g3022" transform="matrix(8.1469128,0,0,8.1469128,-242.48759,-272.19257)">
	<polygon id="polygon8" fill="#007EE5" points="717.645,143.099 703.837,152.114 713.384,159.76 727.307,151.163 	"/>
	<polygon id="polygon10" fill="#007EE5" points="703.837,167.406 717.645,176.422 727.307,168.357 713.384,159.76 	"/>
	<polygon id="polygon12" fill="#007EE5" points="727.307,168.357 736.969,176.422 750.777,167.406 741.23,159.76 	"/>
	<polygon id="polygon14" fill="#007EE5" points="750.777,152.114 736.969,143.099 727.307,151.163 741.23,159.76 	"/>
	<polygon id="polygon16" fill="#007EE5" points="727.336,170.092 717.645,178.133 713.498,175.426 713.498,178.461 727.336,186.758 
		741.173,178.461 741.173,175.426 737.026,178.133 	"/>
</g>
</svg>
