<?xml version="1.0" encoding="utf-8"?>
<!-- Generator: Adobe Illustrator 16.0.0, SVG Export Plug-In . SVG Version: 6.00 Build 0)  -->
<!DOCTYPE svg PUBLIC "-//W3C//DTD SVG 1.1//EN" "http://www.w3.org/Graphics/SVG/1.1/DTD/svg11.dtd">
<svg version="1.1" id="Capa_1" xmlns="http://www.w3.org/2000/svg" xmlns:xlink="http://www.w3.org/1999/xlink" x="0px" y="0px"
	 width="358px" height="148.664px" viewBox="-32.833 -24.628 358 148.664" enable-background="new -32.833 -24.628 358 148.664"
	 xml:space="preserve">
<g id="Capa_2" display="none">
	<g id="FmsADz.tif" display="inline">
	</g>
</g>
<path fill="#53E2C6" d="M173.735,103.261c0,3.313-2.687,6-6,6h-54.877c-3.314,0-6-2.687-6-6V87c0-0.595-0.014-5.48-0.016-6.022
	c2.331,0.01,7.206,0.022,10.039,0.022h56.828c-0.016,3.435,0.025,2.687,0.025,6V103.261z"/>
<polyline fill="none" stroke="#53E2C6" stroke-miterlimit="10" points="173.709,33.375 173.7,32.156 159.95,17.484 158.673,17.473 
	"/>
<path fill="none" stroke="#53E2C6" stroke-miterlimit="10" d="M173.709,103.261c0,3.313-2.687,6-6,6h-54.852c-3.314,0-6-2.687-6-6
	V23.473c0-3.313,2.686-6,6-6h46.783L159.635,32.5l14.074-0.035V103.261z"/>
<g>
	<path fill="#FFFFFF" d="M132.372,97.944c0,0.488-0.12,1.018-0.361,1.586c-0.24,0.568-0.619,1.127-1.135,1.674
		c-0.517,0.549-1.176,0.993-1.979,1.335c-0.802,0.342-1.736,0.513-2.805,0.513c-0.809,0-1.545-0.077-2.207-0.23
		c-0.663-0.153-1.266-0.393-1.806-0.717s-1.038-0.752-1.491-1.281c-0.404-0.482-0.75-1.021-1.036-1.617
		c-0.286-0.597-0.501-1.233-0.644-1.91c-0.143-0.676-0.215-1.395-0.215-2.156c0-1.234,0.18-2.34,0.539-3.316
		c0.359-0.977,0.874-1.812,1.544-2.506s1.454-1.223,2.354-1.585s1.859-0.544,2.878-0.544c1.241,0,2.348,0.248,3.317,0.743
		c0.969,0.496,1.713,1.107,2.229,1.836c0.517,0.729,0.775,1.418,0.775,2.066c0,0.356-0.127,0.67-0.377,0.942
		c-0.252,0.272-0.555,0.408-0.911,0.408c-0.397,0-0.696-0.095-0.895-0.282c-0.198-0.189-0.421-0.514-0.665-0.974
		c-0.404-0.761-0.881-1.329-1.428-1.706c-0.548-0.377-1.223-0.565-2.025-0.565c-1.276,0-2.293,0.485-3.051,1.455
		c-0.756,0.97-1.135,2.348-1.135,4.134c0,1.193,0.168,2.186,0.502,2.977c0.336,0.793,0.81,1.384,1.424,1.774
		c0.613,0.391,1.332,0.586,2.155,0.586c0.894,0,1.648-0.222,2.266-0.665c0.618-0.442,1.083-1.094,1.397-1.951
		c0.133-0.404,0.297-0.734,0.492-0.988c0.195-0.256,0.509-0.383,0.941-0.383c0.369,0,0.688,0.129,0.952,0.387
		C132.239,97.24,132.372,97.562,132.372,97.944z"/>
	<path fill="#FFFFFF" d="M146.823,98.186c0,0.928-0.238,1.762-0.717,2.501c-0.477,0.74-1.178,1.318-2.098,1.737
		c-0.922,0.419-2.014,0.628-3.275,0.628c-1.514,0-2.764-0.286-3.746-0.858c-0.698-0.411-1.266-0.961-1.701-1.647
		c-0.436-0.688-0.654-1.355-0.654-2.004c0-0.377,0.131-0.7,0.393-0.969s0.596-0.402,1-0.402c0.328,0,0.605,0.104,0.832,0.313
		s0.42,0.521,0.58,0.932c0.195,0.488,0.406,0.896,0.633,1.224c0.227,0.328,0.547,0.599,0.959,0.812
		c0.41,0.213,0.951,0.319,1.621,0.319c0.922,0,1.67-0.215,2.244-0.644c0.576-0.429,0.863-0.964,0.863-1.606
		c0-0.51-0.154-0.922-0.465-1.24c-0.311-0.317-0.711-0.56-1.203-0.727c-0.492-0.168-1.15-0.346-1.973-0.534
		c-1.104-0.259-2.025-0.56-2.768-0.905c-0.744-0.346-1.334-0.816-1.77-1.412c-0.436-0.598-0.654-1.338-0.654-2.225
		c0-0.844,0.23-1.594,0.691-2.25s1.127-1.16,1.998-1.512c0.873-0.353,1.898-0.529,3.078-0.529c0.941,0,1.756,0.117,2.443,0.351
		c0.686,0.234,1.256,0.544,1.711,0.932c0.453,0.387,0.783,0.793,0.994,1.219c0.209,0.425,0.312,0.84,0.312,1.245
		c0,0.37-0.131,0.702-0.393,0.999s-0.588,0.445-0.979,0.445c-0.355,0-0.625-0.09-0.811-0.268c-0.184-0.178-0.385-0.469-0.602-0.873
		c-0.279-0.579-0.613-1.031-1.004-1.355s-1.02-0.487-1.885-0.487c-0.801,0-1.449,0.176-1.941,0.529
		c-0.49,0.352-0.736,0.776-0.736,1.271c0,0.308,0.084,0.571,0.25,0.795c0.168,0.224,0.398,0.415,0.691,0.575
		c0.293,0.161,0.59,0.287,0.889,0.377c0.301,0.092,0.797,0.224,1.486,0.398c0.865,0.202,1.648,0.426,2.35,0.67
		s1.297,0.54,1.789,0.889c0.492,0.35,0.875,0.791,1.152,1.324C146.686,96.757,146.823,97.411,146.823,98.186z"/>
	<path fill="#FFFFFF" d="M151.732,89.228l3.475,10.287l3.484-10.36c0.182-0.544,0.317-0.922,0.408-1.135s0.24-0.404,0.45-0.576
		c0.209-0.171,0.495-0.256,0.857-0.256c0.266,0,0.512,0.066,0.738,0.199c0.227,0.132,0.404,0.309,0.533,0.528
		s0.194,0.441,0.194,0.665c0,0.153-0.021,0.319-0.063,0.497c-0.042,0.178-0.094,0.352-0.156,0.523
		c-0.063,0.171-0.126,0.347-0.188,0.529l-3.716,10.025c-0.132,0.383-0.265,0.748-0.397,1.094c-0.133,0.345-0.286,0.648-0.46,0.91
		c-0.175,0.262-0.406,0.477-0.696,0.643c-0.289,0.168-0.644,0.252-1.062,0.252c-0.419,0-0.773-0.082-1.062-0.246
		c-0.29-0.164-0.523-0.38-0.701-0.648s-0.333-0.574-0.466-0.916s-0.266-0.705-0.397-1.088l-3.652-9.942
		c-0.062-0.181-0.127-0.359-0.193-0.534s-0.122-0.363-0.168-0.565c-0.045-0.202-0.067-0.373-0.067-0.513
		c0-0.356,0.143-0.68,0.429-0.974c0.286-0.293,0.646-0.439,1.078-0.439c0.53,0,0.905,0.163,1.125,0.487
		S151.501,88.516,151.732,89.228z"/>
</g>
<path fill="#53E2C6" d="M92.737,91.529c0.736,2.722-0.874,5.524-3.595,6.261l-45.07,12.191c-2.722,0.736-5.525-0.873-6.261-3.596
	l-3.612-13.354c-0.132-0.487-1.228-4.497-1.35-4.942c1.917-0.51,5.923-1.583,8.25-2.212l46.672-12.624
	c0.75,2.824,0.618,2.2,1.354,4.922L92.737,91.529z"/>
<polyline fill="none" stroke="#53E2C6" stroke-miterlimit="10" points="77.191,34.139 76.912,33.14 62.36,24.145 61.309,24.419 "/>
<path fill="none" stroke="#53E2C6" stroke-miterlimit="10" d="M92.716,91.535c0.736,2.721-0.874,5.524-3.595,6.261l-45.049,12.186
	c-2.722,0.736-5.525-0.873-6.261-3.596L20.086,40.857c-0.736-2.722,0.873-5.524,3.595-6.261l38.423-10.393l3.333,12.343
	l11.551-3.156L92.716,91.535z"/>
<g>
	<path fill="#FFFFFF" d="M47.166,101.609l1.91-5.464l-3.766-3.381c-0.357-0.33-0.638-0.621-0.84-0.873
		c-0.202-0.252-0.339-0.51-0.41-0.772c-0.073-0.269-0.018-0.544,0.165-0.824c0.183-0.28,0.447-0.467,0.793-0.561
		c0.398-0.107,0.739-0.074,1.024,0.1c0.285,0.175,0.708,0.526,1.271,1.056l3.044,2.854l1.334-4.038
		c0.108-0.339,0.2-0.629,0.276-0.87c0.076-0.241,0.157-0.445,0.242-0.613c0.085-0.167,0.194-0.305,0.327-0.414
		c0.132-0.108,0.298-0.189,0.497-0.243c0.359-0.097,0.682-0.069,0.968,0.084s0.469,0.377,0.549,0.673
		c0.116,0.43,0.027,1.081-0.268,1.952l-1.657,4.91l4.24,3.801c0.379,0.332,0.665,0.613,0.859,0.848
		c0.194,0.232,0.323,0.468,0.387,0.705c0.061,0.225,0.062,0.445,0.003,0.66c-0.059,0.217-0.173,0.405-0.342,0.568
		c-0.169,0.162-0.379,0.277-0.629,0.346c-0.27,0.072-0.513,0.078-0.729,0.016c-0.216-0.062-0.405-0.16-0.565-0.295
		c-0.161-0.137-0.463-0.402-0.908-0.799l-3.54-3.235l-1.548,4.736c-0.119,0.376-0.204,0.64-0.256,0.792
		c-0.052,0.152-0.123,0.305-0.211,0.46s-0.207,0.29-0.355,0.406c-0.147,0.115-0.334,0.204-0.559,0.265
		c-0.346,0.094-0.662,0.065-0.947-0.085c-0.285-0.149-0.482-0.427-0.592-0.831C46.806,103.067,46.883,102.423,47.166,101.609z"/>
	<path fill="#FFFFFF" d="M59.721,87.616l2.777,10.27l5.794-1.567c0.462-0.124,0.847-0.108,1.154,0.05
		c0.308,0.157,0.508,0.406,0.6,0.746c0.093,0.347,0.047,0.66-0.138,0.941s-0.513,0.484-0.981,0.611l-6.9,1.867
		c-0.623,0.168-1.107,0.15-1.455-0.052s-0.604-0.61-0.771-1.227L56.862,88.39c-0.156-0.577-0.144-1.046,0.038-1.405
		c0.182-0.359,0.484-0.596,0.908-0.71c0.429-0.116,0.816-0.068,1.16,0.146C59.312,86.634,59.563,87.033,59.721,87.616z"/>
	<path fill="#FFFFFF" d="M81.064,90.839c0.23,0.853,0.218,1.679-0.037,2.478c-0.256,0.799-0.755,1.506-1.498,2.12
		s-1.695,1.079-2.856,1.393c-1.392,0.376-2.612,0.425-3.659,0.144c-0.744-0.206-1.402-0.57-1.974-1.094
		c-0.572-0.523-0.939-1.084-1.1-1.68c-0.094-0.348-0.054-0.677,0.12-0.988c0.173-0.312,0.446-0.519,0.819-0.619
		c0.301-0.082,0.583-0.055,0.843,0.082c0.26,0.136,0.516,0.373,0.766,0.712c0.301,0.4,0.596,0.724,0.886,0.968
		c0.291,0.246,0.651,0.415,1.083,0.508c0.431,0.094,0.955,0.057,1.571-0.109c0.847-0.229,1.482-0.613,1.904-1.15
		c0.423-0.538,0.554-1.102,0.395-1.692c-0.127-0.468-0.373-0.81-0.737-1.024c-0.365-0.215-0.794-0.338-1.288-0.37
		c-0.494-0.032-1.143-0.032-1.947,0c-1.078,0.037-2.001-0.011-2.771-0.144c-0.77-0.133-1.429-0.419-1.978-0.859
		s-0.935-1.068-1.155-1.882c-0.209-0.776-0.184-1.523,0.076-2.241c0.261-0.718,0.748-1.347,1.462-1.888
		c0.714-0.541,1.613-0.958,2.698-1.251c0.867-0.234,1.645-0.329,2.335-0.285c0.69,0.044,1.292,0.188,1.805,0.431
		c0.513,0.244,0.919,0.535,1.217,0.874c0.299,0.339,0.498,0.695,0.599,1.067c0.092,0.34,0.055,0.679-0.112,1.017
		s-0.43,0.555-0.789,0.653c-0.327,0.088-0.598,0.074-0.812-0.044c-0.215-0.118-0.471-0.335-0.771-0.654
		c-0.4-0.463-0.821-0.795-1.261-0.997s-1.058-0.194-1.854,0.021c-0.738,0.2-1.289,0.523-1.654,0.969
		c-0.365,0.447-0.485,0.897-0.362,1.353c0.077,0.282,0.219,0.505,0.429,0.669c0.209,0.164,0.469,0.283,0.778,0.358
		c0.31,0.074,0.614,0.116,0.912,0.125c0.299,0.009,0.787,0.007,1.466-0.004c0.846-0.029,1.622-0.019,2.327,0.031
		c0.706,0.05,1.328,0.174,1.867,0.373s1.001,0.509,1.388,0.931C80.582,89.56,80.871,90.127,81.064,90.839z"/>
</g>
<path fill="#53E2C6" d="M240.848,104.894c-0.706,2.693-3.463,4.305-6.156,3.6L190.079,96.8c-2.694-0.707-4.306-3.463-3.599-6.157
	l3.465-13.219c0.126-0.483,1.155-4.458,1.27-4.899c1.893,0.505,5.854,1.553,8.157,2.157l46.199,12.109
	c-0.744,2.79-0.551,2.19-1.257,4.883L240.848,104.894z"/>
<polyline fill="none" stroke="#53E2C6" stroke-miterlimit="10" points="255.72,48.073 255.971,47.08 247.919,32.222 246.883,31.94 
	"/>
<path fill="none" stroke="#53E2C6" stroke-miterlimit="10" d="M240.827,104.888c-0.706,2.693-3.462,4.306-6.155,3.6L190.079,96.8
	c-2.694-0.707-4.306-3.463-3.599-6.157l17.001-64.865c0.707-2.694,3.462-4.306,6.155-3.6l38.035,9.969l-3.207,12.215l11.449,2.971
	L240.827,104.888z"/>
<g>
	<path fill="#FAFFFE" d="M202.671,94.354l-1.161-3.267l-2.66,2.266c-0.382,0.313-0.69,0.528-0.927,0.643
		c-0.237,0.114-0.505,0.132-0.803,0.055c-0.331-0.087-0.584-0.264-0.764-0.531c-0.177-0.267-0.23-0.534-0.16-0.801
		c0.071-0.272,0.352-0.616,0.84-1.032l3.238-2.755l-1.352-3.357c-0.239-0.558-0.314-1.009-0.225-1.353
		c0.069-0.267,0.238-0.47,0.507-0.611c0.267-0.14,0.575-0.164,0.925-0.073c0.305,0.08,0.535,0.232,0.689,0.456
		c0.155,0.224,0.317,0.555,0.489,0.993l1.081,2.748l2.243-1.876c0.373-0.31,0.681-0.521,0.925-0.633
		c0.243-0.113,0.513-0.13,0.812-0.051c0.344,0.09,0.603,0.261,0.777,0.514s0.227,0.516,0.154,0.789
		c-0.052,0.197-0.146,0.374-0.287,0.53c-0.139,0.157-0.336,0.334-0.592,0.532l-2.824,2.263l1.47,3.99
		c0.23,0.624,0.311,1.069,0.241,1.336c-0.072,0.272-0.248,0.479-0.527,0.615c-0.281,0.137-0.59,0.16-0.926,0.072
		c-0.299-0.078-0.529-0.229-0.69-0.455C203.004,95.134,202.839,94.8,202.671,94.354z"/>
	<path fill="#FAFFFE" d="M207.329,95.036l2.956-11.28c0.137-0.521,0.356-0.884,0.657-1.09c0.302-0.207,0.65-0.258,1.044-0.155
		c0.394,0.104,0.677,0.318,0.85,0.646c0.172,0.327,0.188,0.753,0.05,1.281l-2.956,11.28c-0.138,0.527-0.364,0.89-0.678,1.09
		c-0.313,0.199-0.664,0.248-1.051,0.146c-0.383-0.1-0.654-0.317-0.822-0.653C207.212,95.966,207.196,95.544,207.329,95.036z"/>
	<path fill="#FAFFFE" d="M221.467,96.797c-0.188,0.718-0.523,1.286-1.007,1.706c-0.484,0.42-1.101,0.672-1.854,0.757
		c-0.752,0.085-1.616-0.001-2.595-0.257c-0.934-0.246-1.697-0.598-2.288-1.059c-0.593-0.461-0.99-0.947-1.195-1.459
		c-0.206-0.512-0.252-0.984-0.14-1.416c0.075-0.285,0.242-0.504,0.498-0.653c0.256-0.15,0.54-0.185,0.852-0.103
		c0.272,0.072,0.466,0.193,0.576,0.365c0.111,0.171,0.202,0.396,0.272,0.672c0.145,0.533,0.374,0.963,0.686,1.289
		s0.788,0.572,1.429,0.741c0.521,0.137,0.979,0.133,1.373-0.012c0.394-0.146,0.631-0.366,0.708-0.665
		c0.12-0.457,0.035-0.836-0.257-1.136c-0.291-0.3-0.81-0.649-1.553-1.049c-0.837-0.457-1.505-0.882-2.003-1.273
		s-0.862-0.831-1.094-1.32c-0.233-0.488-0.272-1.024-0.119-1.609c0.137-0.521,0.422-0.972,0.854-1.354
		c0.433-0.382,0.988-0.632,1.667-0.749c0.68-0.118,1.447-0.064,2.306,0.161c0.673,0.176,1.26,0.405,1.76,0.685
		s0.898,0.584,1.194,0.914c0.299,0.329,0.503,0.661,0.615,0.996c0.113,0.335,0.134,0.639,0.062,0.912
		c-0.078,0.299-0.242,0.518-0.492,0.656c-0.25,0.137-0.559,0.158-0.928,0.062c-0.267-0.07-0.474-0.206-0.62-0.407
		c-0.148-0.202-0.303-0.486-0.464-0.854c-0.131-0.306-0.31-0.57-0.536-0.792c-0.228-0.223-0.568-0.394-1.026-0.514
		c-0.47-0.123-0.887-0.125-1.25-0.007c-0.364,0.119-0.585,0.328-0.663,0.626c-0.071,0.273-0.015,0.527,0.167,0.761
		c0.183,0.235,0.453,0.46,0.812,0.676c0.356,0.216,0.854,0.496,1.489,0.839c0.756,0.408,1.353,0.816,1.793,1.223
		c0.439,0.407,0.742,0.832,0.908,1.271C221.571,95.862,221.591,96.321,221.467,96.797z"/>
	<path fill="#FAFFFE" d="M228.699,101.177l-1.16-3.267l-2.661,2.265c-0.381,0.314-0.689,0.529-0.927,0.643
		c-0.236,0.115-0.504,0.133-0.804,0.055c-0.329-0.086-0.583-0.264-0.762-0.53c-0.177-0.267-0.231-0.534-0.161-0.801
		c0.072-0.273,0.352-0.617,0.84-1.032l3.238-2.756l-1.351-3.357c-0.24-0.559-0.315-1.01-0.226-1.352
		c0.07-0.267,0.239-0.471,0.507-0.611c0.268-0.141,0.576-0.165,0.925-0.073c0.306,0.08,0.535,0.231,0.689,0.456
		c0.156,0.225,0.318,0.556,0.488,0.994l1.083,2.747l2.242-1.876c0.373-0.31,0.682-0.521,0.925-0.634
		c0.244-0.112,0.514-0.13,0.812-0.052c0.344,0.09,0.602,0.262,0.776,0.514c0.175,0.254,0.227,0.517,0.155,0.789
		c-0.052,0.197-0.147,0.374-0.286,0.531c-0.141,0.156-0.338,0.334-0.594,0.531l-2.823,2.264l1.47,3.99
		c0.23,0.623,0.311,1.068,0.241,1.336c-0.072,0.272-0.248,0.478-0.528,0.615c-0.28,0.137-0.59,0.16-0.926,0.072
		c-0.299-0.078-0.527-0.229-0.69-0.455C229.033,101.956,228.867,101.622,228.699,101.177z"/>
</g>
<path fill="#E6EAED" d="M139.045-1.138c0,0.745-0.604,1.349-1.349,1.349l0,0c-0.745,0-1.349-0.604-1.349-1.349v-9.329
	c0-0.745,0.604-1.349,1.349-1.349l0,0c0.745,0,1.349,0.604,1.349,1.349V-1.138z"/>
<path fill="#E6EAED" d="M150.593,2.646c-0.382,0.641-1.209,0.852-1.85,0.471l0,0c-0.64-0.382-0.851-1.209-0.47-1.849l4.769-8.018
	c0.381-0.64,1.208-0.852,1.849-0.471l0,0c0.641,0.382,0.852,1.209,0.471,1.85L150.593,2.646z"/>
<path fill="#E6EAED" d="M126.814,1.249c0.384,0.639,0.179,1.467-0.46,1.851l0,0c-0.639,0.385-1.467,0.178-1.852-0.46l-4.81-7.994
	c-0.384-0.638-0.179-1.467,0.46-1.851l0,0c0.639-0.384,1.467-0.178,1.852,0.46L126.814,1.249z"/>
<path opacity="0.3" fill="#E6EAED" stroke="#5D95E8" stroke-width="4" stroke-miterlimit="10" d="M6.02,10.264l-7.779,5.266
	c0,0-2.035,2.094,0,4.488s9.096,3.65,9.335,3.65s2.992-0.479,2.872-3.112S9.071,11.4,9.071,11.4S8.052,8.888,6.02,10.264z"/>
<path fill="none" stroke="#FFE293" stroke-width="3" stroke-miterlimit="10" d="M4.325,75.368c0.84,2.043-0.135,4.38-2.178,5.221
	l-2.878,1.184c-2.043,0.84-4.38-0.135-5.221-2.178l-1.184-2.878c-0.84-2.043,0.135-4.38,2.178-5.221l2.878-1.184
	c2.043-0.84,4.38,0.135,5.221,2.178L4.325,75.368z"/>
<path fill="#FFE293" d="M-19.035,47.438c0,0.457-0.371,0.828-0.828,0.828l0,0c-0.458,0-0.829-0.371-0.829-0.828v-9.197
	c0-0.458,0.371-0.829,0.829-0.829l0,0c0.457,0,0.828,0.371,0.828,0.829V47.438z"/>
<path fill="#FFE293" d="M-14.561,43.005c0,0.48-0.39,0.87-0.87,0.87h-8.699c-0.48,0-0.87-0.39-0.87-0.87l0,0
	c0-0.48,0.39-0.87,0.87-0.87h8.699C-14.95,42.135-14.561,42.525-14.561,43.005L-14.561,43.005z"/>
<path fill="#FFE293" d="M12.527,114.806c0.314,0.069,0.514,0.382,0.443,0.697l0,0c-0.07,0.314-0.383,0.514-0.698,0.443l-6.335-1.41
	c-0.315-0.07-0.514-0.383-0.444-0.697l0,0c0.07-0.315,0.383-0.514,0.698-0.443L12.527,114.806z"/>
<path fill="#FFE293" d="M10.159,111.044c0.331,0.073,0.54,0.401,0.466,0.732l-1.333,5.992c-0.074,0.331-0.402,0.54-0.733,0.467l0,0
	c-0.331-0.074-0.54-0.402-0.466-0.733l1.334-5.992C9.5,111.179,9.828,110.97,10.159,111.044L10.159,111.044z"/>
<path fill="none" stroke="#FFE293" stroke-width="3" stroke-miterlimit="10" d="M316.922,72.731l-6.981-0.207
	c0,0-2.139,0.378-1.952,2.707c0.188,2.329,3.899,6.157,4.043,6.261c0.145,0.104,2.014,1.012,3.086-0.628
	c1.073-1.64,3.15-6.12,3.15-6.12S318.747,72.785,316.922,72.731z"/>
<path opacity="0.3" fill="#E6EAED" stroke="#5D95E8" stroke-width="4" stroke-miterlimit="10" d="M280.308,31.49
	c0.52,1.264-0.083,2.71-1.347,3.23l-1.781,0.732c-1.265,0.52-2.71-0.083-3.23-1.348l-0.732-1.78c-0.52-1.264,0.084-2.71,1.348-3.23
	l1.781-0.732c1.264-0.52,2.71,0.084,3.229,1.348L280.308,31.49z"/>
<path fill="#FFE293" d="M288.358,64.608c-0.268,0.611-0.982,0.89-1.593,0.623l0,0c-0.612-0.269-0.89-0.982-0.622-1.593l5.393-12.304
	c0.268-0.612,0.98-0.891,1.593-0.624l0,0c0.611,0.268,0.89,0.983,0.622,1.595L288.358,64.608z"/>
<path fill="#FFE293" d="M296.944,61.302c-0.281,0.643-1.034,0.935-1.676,0.653l-11.638-5.1c-0.643-0.282-0.935-1.032-0.653-1.674
	l0,0c0.282-0.643,1.03-0.936,1.674-0.654l11.638,5.1C296.931,59.908,297.225,60.659,296.944,61.302L296.944,61.302z"/>
<path opacity="0.3" fill="#E6EAED" stroke="#5D95E8" stroke-width="4" stroke-miterlimit="10" d="M297.681,99.532l-4.477,2.223
	c0,0-1.223,0.961-0.319,2.367c0.903,1.407,4.538,2.572,4.663,2.59c0.127,0.017,1.613-0.041,1.736-1.438
	c0.124-1.397-0.075-4.926-0.075-4.926S298.851,98.95,297.681,99.532z"/>
</svg>
